<svg id="Layer_1" data-name="Layer 1" xmlns="http://www.w3.org/2000/svg" viewBox="0 0 364.22 45"><defs><style>.cls-1{fill:#0d0c0f;}</style></defs><title>kube-router-textOnly</title><path class="cls-1" d="M31.7,45.31c0,1.12-1,1.87-3.25,1.87H25.2c-4,0-4.25-.88-5.62-4.94-2.81-8.19-3.87-13.81-5.69-13.81-.38,0-.5.56-.5,1.37s.13,1.94.13,3v9.38c0,2.5,0,5-3.75,5H6.64c-3.75,0-3.75-2.5-3.75-5V7.81c0-2.5,0-5,3.75-5H9.77c3.75,0,3.75,2.5,3.75,5,0,11.06,0,11.06.31,11.06,1.88,0,3.63-7.38,4.25-8.88,2.06-4.94,2.25-7.19,5.44-7.19h3.62c2.13,0,3.88,0,3.88,1.75A8.07,8.07,0,0,1,30,7.87c-2,4.13-7.5,14-7.5,14.38a6.9,6.9,0,0,0,.69,1.56C23.77,25.19,31.52,42.13,31.7,45.31Z" transform="translate(-2.89 -2.5)"/><path class="cls-1" d="M66.53,34.5c0,7.75-.88,13-13.44,13C39.9,47.5,39,42.19,39,34.06,39,14.31,39,7.81,39,7.81c0-2.5,0-5,3.75-5H45.9c3.75,0,3.75,2.5,3.75,5v27.5c0,1.87,0,3.44,3.44,3.44,2.81,0,2.81-1.56,2.81-3.44V7.75c0-2.44,0-4.94,3.75-4.94h3.12c3.75,0,3.75,2.5,3.75,4.94Z" transform="translate(-2.89 -2.5)"/><path class="cls-1" d="M98.69,23.44a.32.32,0,0,0,.25.31c4.5,1.5,6.12,6.44,6.12,10.81a14.92,14.92,0,0,1-1.69,6.88c-3.06,5.62-5.69,5.75-9.75,5.75H79.69c-3.75,0-3.75-2.5-3.75-5V7.81c0-2.5,0-5,3.75-5H93.13c8.06,0,10.75,5.37,10.75,11.13,0,3.69-1.5,7.38-4.94,9.19A.32.32,0,0,0,98.69,23.44ZM86.57,15.5c0,3.12,0,4.19,3.12,4.19,2.5,0,3.12-2,3.12-4.19s-.63-4.25-3.12-4.25C86.57,11.25,86.57,12.37,86.57,15.5Zm0,17.63c0,3.75,0,5.62,3.44,5.62,3.12,0,3.44-2.81,3.44-5.62s0-5.5-3.44-5.5S86.57,29.38,86.57,33.13Z" transform="translate(-2.89 -2.5)"/><path class="cls-1" d="M124.5,35.75a2.42,2.42,0,0,0,2.63,2.06c3.56,0,4.75-.13,6.06-.13,2.63,0,3.44.75,3.44,2.63v4.38c0,1.87-.62,2.5-2.5,2.5h-16.5c-3.75,0-3.75-3.75-3.75-5V7.81c0-2.5,0-5,3.75-5h16.12c1.56,0,2.94.63,2.94,1.88V10c0,1.5-1.25,1.56-2.81,1.56-2.44,0-4.38-.13-5.94-.13-3.44,0-3.44,1.25-3.44,3.25,0,4.06,0,5.12,3.12,5.12,3.87,0,4.5-.13,5.94-.13,2.19,0,2.31,2.19,2.31,2.88v4c0,1.88-1.31,2-2.88,2-3.19,0-5.19-.12-6.5-.12-2,0-2,.88-2,2.94Z" transform="translate(-2.89 -2.5)"/><path class="cls-1" d="M181.09,2.81C190.4,2.81,193,9.5,193,16.88c0,4.5-.06,7.37-3.62,10.37-1.75,1.5-2.87.63-2.87,3,0,2.56.81,5.69,2.87,5.69a8.37,8.37,0,0,0,2-.31c2,0,2.31,1.69,2.31,4.56,0,1.38-.06,3.06-.06,4.94,0,1.25-.5,2.37-3.75,2.37-5.75,0-8.69-4.25-9.87-8.88-1.5-5.81-3.38-6.81-3.75-6.81s-.5,1-.5,1.5v8.88c0,2.5,0,5-3.75,5h-4.38c-2.5,0-2.5-2.5-2.5-5V7.81c0-2.5,0-5,3.75-5Zm-5.37,11.13c0,.81.06,2.25.06,3.56s-.06,2.38-.06,3.12c0,2.06.37,2.44,2.87,2.44,2.81,0,3.44-2.75,3.44-5.56s-.63-6.25-3.44-6.25C176.09,11.25,175.71,11.69,175.71,13.94Z" transform="translate(-2.89 -2.5)"/><path class="cls-1" d="M202.11,19.94c0-10.06.94-17.44,14.13-17.44,12.56,0,13.44,7.25,13.44,17.19,0,3.75.19,7.44.19,10.75,0,9.87-1.56,17.06-13.62,17.06-13.19,0-14.13-7.37-14.13-17.38,0-1.69.06-3.37.06-5.12S202.11,21.56,202.11,19.94Zm10.69-5.25V34.37c0,1.88,0,4.38,3.12,4.38s3.12-2.5,3.12-4.38V14.69c0-1.56,0-3.44-3.12-3.44S212.8,13.13,212.8,14.69Z" transform="translate(-2.89 -2.5)"/><path class="cls-1" d="M266.34,34.5c0,7.75-.88,13-13.44,13-13.19,0-14.13-5.31-14.13-13.44,0-19.75.06-26.25.06-26.25,0-2.5,0-5,3.75-5h3.12c3.75,0,3.75,2.5,3.75,5v27.5c0,1.87,0,3.44,3.44,3.44,2.81,0,2.81-1.56,2.81-3.44V7.75c0-2.44,0-4.94,3.75-4.94h3.12c3.75,0,3.75,2.5,3.75,4.94Z" transform="translate(-2.89 -2.5)"/><path class="cls-1" d="M291.88,42.62c-.12,2.38-.25,4.56-3.75,4.56H285c-3.75,0-3.75-2.5-3.75-5V13.63c0-1.56-.31-1.94-1.62-1.94-.44,0-1.06.06-1.81.06-1.56,0-2.81-.25-2.81-1.75V4.69c0-1.25,1.38-1.88,2.94-1.88h17.25c1.56,0,2.94.63,2.94,1.88V10c0,1.5-1.25,1.75-2.81,1.75-.44,0-1-.06-1.75-.06-1.56,0-1.69.38-1.69,1.94Z" transform="translate(-2.89 -2.5)"/><path class="cls-1" d="M317.41,35.75A2.43,2.43,0,0,0,320,37.81c3.56,0,4.75-.13,6.06-.13,2.63,0,3.44.75,3.44,2.63v4.38c0,1.87-.63,2.5-2.5,2.5h-16.5c-3.75,0-3.75-3.75-3.75-5V7.81c0-2.5,0-5,3.75-5h16.12c1.56,0,2.94.63,2.94,1.88V10c0,1.5-1.25,1.56-2.81,1.56-2.44,0-4.38-.13-5.94-.13-3.44,0-3.44,1.25-3.44,3.25,0,4.06,0,5.12,3.12,5.12,3.88,0,4.5-.13,5.94-.13,2.19,0,2.31,2.19,2.31,2.88v4c0,1.88-1.31,2-2.87,2-3.19,0-5.19-.12-6.5-.12-2,0-2,.88-2,2.94Z" transform="translate(-2.89 -2.5)"/><path class="cls-1" d="M364.8,35.63a8.37,8.37,0,0,1-2,.31c-2.06,0-2.87-3.12-2.87-5.69,0-2.38,1.12-1.5,2.87-3,3.56-3,3.62-5.87,3.62-10.37,0-7.38-2.63-14.06-11.94-14.06H342.3c-3.75,0-3.75,2.5-3.75,5V42.19c0,2.5,0,5,2.5,5h4.38c3.75,0,3.75-2.5,3.75-5V33.31c0-.5,0-1.5.5-1.5s2.25,1,3.75,6.81c1.19,4.63,4.12,8.88,9.87,8.88,3.25,0,3.75-1.12,3.75-2.37,0-1.88.06-3.56.06-4.94C367.11,37.31,366.8,35.63,364.8,35.63ZM352,23.06c-2.5,0-2.87-.37-2.87-2.44,0-.75.06-1.87.06-3.12s-.06-2.75-.06-3.56c0-2.25.38-2.69,2.87-2.69,2.81,0,3.44,3.44,3.44,6.25S354.8,23.06,352,23.06Z" transform="translate(-2.89 -2.5)"/><path class="cls-1" d="M144.89,29.28c-1.21,0-3.09,0-3.09-2.69v-4c0-2.69,1.88-2.69,3.09-2.69h11.5c1.55,0,2.89,0,2.89,2.69v4c0,2.69-1.34,2.69-2.89,2.69Z" transform="translate(-2.89 -2.5)"/></svg>