<?xml version="1.0" standalone="no"?>
<!DOCTYPE svg PUBLIC "-//W3C//DTD SVG 20010904//EN"
 "http://www.w3.org/TR/2001/REC-SVG-20010904/DTD/svg10.dtd">
<svg version="1.0" xmlns="http://www.w3.org/2000/svg"
 width="864.000000pt" height="864.000000pt" viewBox="0 0 864.000000 864.000000"
 preserveAspectRatio="xMidYMid meet">
<metadata>
Created by potrace 1.11, written by Peter Selinger 2001-2013
</metadata>
<g transform="translate(0.000000,864.000000) scale(0.100000,-0.100000)"
fill="#000000" stroke="none">
<path d="M4195 8555 c-142 -23 -364 -84 -392 -107 -7 -6 -13 -8 -13 -5 0 10
-139 -56 -475 -225 -176 -89 -335 -168 -352 -177 -18 -8 -33 -19 -33 -23 0 -4
-7 -8 -16 -8 -9 0 -28 -8 -42 -18 -15 -10 -56 -33 -92 -52 -36 -18 -67 -36
-70 -40 -3 -4 -16 -11 -30 -15 -14 -4 -42 -19 -62 -31 -21 -13 -40 -24 -42
-24 -2 0 -35 -17 -73 -38 -37 -22 -113 -63 -168 -92 -55 -30 -118 -64 -140
-76 -66 -37 -122 -66 -305 -159 -96 -49 -177 -91 -180 -94 -3 -3 -11 -7 -18
-9 -19 -3 -397 -193 -462 -232 -30 -17 -63 -39 -72 -48 -10 -8 -18 -12 -18 -8
0 6 -100 -65 -128 -91 -7 -7 -17 -13 -21 -13 -14 0 -185 -174 -232 -235 -102
-135 -181 -305 -206 -445 -2 -14 -9 -43 -14 -64 -6 -22 -12 -49 -14 -60 -1
-12 -5 -28 -8 -36 -4 -13 -18 -79 -31 -145 -2 -11 -9 -38 -15 -60 -5 -22 -13
-56 -16 -75 -3 -19 -17 -84 -31 -145 -13 -60 -26 -123 -29 -138 -2 -15 -18
-96 -34 -180 -40 -201 -39 -199 -45 -223 -2 -12 -7 -37 -10 -55 -3 -19 -8 -45
-11 -59 -3 -14 -8 -38 -10 -55 -3 -16 -8 -39 -12 -50 -3 -11 -7 -31 -9 -45 -1
-14 -10 -61 -19 -105 -9 -44 -18 -89 -20 -100 -2 -11 -4 -20 -5 -20 -1 0 -3
-9 -4 -20 -7 -50 -17 -103 -27 -140 -6 -22 -13 -49 -15 -60 -12 -75 -25 -133
-84 -398 -27 -126 -52 -238 -54 -250 -3 -12 -5 -22 -6 -22 -1 0 -3 -9 -5 -20
-35 -188 -23 -463 29 -635 62 -204 171 -411 278 -525 15 -16 28 -33 28 -36 0
-3 12 -19 28 -36 15 -16 34 -38 42 -49 160 -200 305 -380 310 -384 3 -3 19
-23 35 -45 16 -22 40 -50 52 -62 13 -12 23 -25 23 -28 0 -3 8 -13 18 -23 9
-10 33 -38 52 -61 19 -23 40 -48 45 -54 9 -10 55 -66 176 -212 61 -73 102
-123 117 -140 10 -11 53 -63 97 -115 44 -52 82 -97 85 -100 3 -3 18 -23 35
-45 16 -21 36 -47 45 -55 20 -22 40 -46 135 -165 43 -55 82 -102 85 -105 3 -3
28 -34 55 -70 28 -36 55 -69 61 -75 6 -5 40 -46 75 -90 70 -87 209 -230 278
-285 24 -19 49 -41 56 -48 8 -6 18 -12 23 -12 6 0 12 -4 14 -8 5 -12 126 -85
188 -114 64 -31 164 -67 200 -74 14 -2 32 -7 40 -11 8 -3 24 -7 35 -9 11 -1
43 -6 70 -11 28 -4 235 -7 460 -6 373 1 512 5 765 18 181 10 278 15 355 20
252 15 503 23 990 30 187 3 354 7 370 9 17 3 54 7 82 10 29 3 82 12 117 20 35
9 75 17 87 20 13 2 44 11 69 20 25 9 54 19 65 21 27 6 179 78 183 88 2 4 10 7
18 7 8 0 14 5 14 10 0 6 5 10 12 10 27 0 208 159 268 236 51 65 246 311 255
321 12 15 19 24 65 83 19 25 39 50 45 57 15 18 23 28 120 153 49 63 92 117 95
120 3 3 75 93 159 200 172 219 202 257 216 274 6 6 44 54 85 106 41 52 77 97
80 100 3 3 46 57 95 120 49 63 94 120 100 126 5 6 22 26 36 45 15 19 77 97
138 174 102 128 143 182 209 282 23 35 135 250 139 268 2 6 16 48 33 94 53
146 71 245 75 416 2 72 -1 155 -6 185 -6 30 -12 69 -14 85 -2 17 -12 66 -23
110 -11 44 -23 94 -26 110 -3 17 -7 39 -10 50 -9 37 -38 169 -47 212 -4 23
-17 79 -28 125 -11 46 -22 100 -25 122 -4 21 -9 42 -12 47 -4 8 -15 68 -17 97
0 6 -3 12 -7 12 -3 0 -6 8 -6 18 -1 20 -12 82 -29 162 -7 29 -24 114 -31 149
-3 13 -11 51 -19 85 -8 33 -12 62 -10 65 3 2 0 10 -6 18 -6 7 -9 13 -6 13 3 0
0 19 -5 43 -8 35 -58 272 -73 345 -3 12 -7 32 -10 45 -2 12 -11 54 -20 92 -21
93 -24 104 -32 145 -4 19 -8 37 -8 40 -1 3 -4 19 -8 35 -4 17 -9 39 -12 50 -2
11 -11 52 -20 90 -9 39 -19 83 -21 99 -4 22 -44 175 -67 261 -2 6 -13 32 -25
59 -12 27 -22 52 -22 57 0 5 -4 9 -8 9 -4 0 -13 12 -20 28 -51 113 -211 292
-367 409 -49 38 -91 71 -93 76 -2 4 -7 7 -12 7 -5 0 -45 23 -89 50 -44 28
-111 65 -148 83 -38 17 -70 34 -73 37 -3 3 -115 60 -250 127 -135 67 -292 147
-350 179 -58 31 -125 67 -150 81 -25 13 -72 40 -105 59 -33 19 -68 38 -77 41
-10 3 -18 9 -18 14 0 5 -4 9 -9 9 -13 0 -155 82 -159 92 -2 4 -7 8 -12 8 -5 0
-48 23 -97 51 -84 50 -116 67 -220 125 -328 182 -803 419 -911 455 -37 12 -67
21 -67 20 0 -1 -13 3 -29 9 -16 6 -45 13 -65 16 -20 3 -47 8 -61 11 -56 12
-328 10 -405 -2z m391 -1440 c271 -20 468 -75 602 -167 107 -74 250 -248 322
-393 14 -27 27 -52 30 -55 3 -3 6 -9 7 -15 1 -5 14 -44 28 -85 27 -75 34 -98
39 -135 2 -11 6 -33 10 -50 3 -16 9 -50 12 -75 3 -25 7 -58 10 -75 7 -52 7
-427 0 -485 -13 -98 -57 -230 -77 -230 -5 0 -9 -5 -9 -11 0 -7 -26 -45 -57
-86 -31 -41 -57 -84 -58 -96 -1 -14 13 -35 41 -60 68 -61 116 -172 116 -268
-1 -55 -12 -121 -25 -144 -6 -11 -11 -23 -12 -26 0 -4 -29 -54 -64 -113 l-63
-107 17 -52 c67 -208 277 -290 490 -190 37 17 164 99 175 113 3 3 22 16 43 29
21 13 43 28 50 34 7 7 35 28 62 47 28 19 59 42 69 52 11 10 23 18 27 18 4 0
14 6 21 13 25 22 137 97 147 97 5 0 11 3 13 8 3 7 121 77 168 100 56 26 123
43 172 43 69 -1 74 -2 142 -35 156 -77 239 -251 202 -426 -7 -33 -73 -90 -105
-91 -82 -4 -127 19 -141 71 -10 36 -5 86 9 105 5 5 13 25 19 42 9 28 8 34 -7
43 -10 5 -21 7 -24 4 -3 -4 -18 3 -33 15 l-28 22 -47 -50 c-59 -62 -136 -104
-162 -87 -15 9 -21 7 -36 -13 -11 -14 -17 -31 -14 -38 9 -24 -7 -61 -42 -97
-19 -20 -38 -36 -42 -37 -5 -1 -22 -2 -40 -3 -42 -2 -70 -32 -65 -67 10 -68
-82 -179 -140 -170 -5 0 -8 -7 -9 -17 -2 -40 -11 -77 -21 -83 -14 -9 -79 -4
-138 9 -66 15 -163 56 -216 92 -26 17 -48 29 -51 27 -9 -10 160 -109 207 -122
3 -1 31 -9 63 -19 32 -10 72 -19 90 -21 18 -2 32 -4 32 -5 0 -1 14 -4 30 -6
50 -7 107 -25 173 -55 35 -16 67 -29 72 -29 6 0 10 -4 10 -10 0 -5 5 -10 11
-10 30 0 173 -133 227 -213 101 -146 101 -350 0 -454 -18 -18 -37 -33 -42 -33
-6 0 -22 -6 -36 -13 -14 -7 -50 -12 -80 -11 -95 3 -164 46 -176 110 -6 31 -2
40 25 68 33 34 38 46 19 46 -54 0 -138 166 -93 184 20 7 10 29 -22 44 -35 16
-50 15 -56 -2 -9 -22 -70 -30 -112 -15 -51 19 -75 44 -69 73 6 35 -28 44 -62
17 -35 -28 -102 -28 -155 0 -37 18 -41 24 -36 49 5 24 2 30 -21 38 -15 5 -40
9 -56 8 -23 -1 -30 -6 -33 -26 -5 -36 -17 -43 -73 -46 -50 -2 -128 20 -131 38
-1 4 -2 14 -3 21 -1 17 -33 44 -75 63 -26 12 -46 32 -71 77 -49 84 -104 166
-135 202 -29 33 -35 46 68 -145 16 -30 35 -62 42 -70 6 -8 21 -36 33 -61 18
-39 20 -61 17 -140 -2 -52 -7 -119 -10 -149 -15 -120 -12 -261 9 -385 12 -72
99 -270 142 -326 44 -55 121 -127 144 -135 23 -7 38 -8 73 -5 7 1 35 21 62 46
94 85 174 101 258 52 112 -66 152 -194 98 -309 -29 -61 -99 -125 -145 -133
-19 -4 -35 -10 -34 -14 2 -20 -6 -30 -40 -45 -49 -22 -100 -14 -128 20 -25 30
-92 40 -109 17 -30 -40 -109 -30 -160 21 -21 21 -25 32 -20 58 5 27 2 36 -15
46 -15 9 -26 10 -40 2 -46 -24 -116 1 -172 63 -29 31 -37 72 -15 80 20 7 -14
62 -39 62 -37 0 -70 26 -92 71 -26 52 -29 109 -7 118 8 3 15 11 15 19 0 20
-57 70 -72 64 -21 -8 -45 15 -63 61 -17 41 -14 99 4 88 20 -13 28 20 17 64
-10 41 -14 45 -38 42 -38 -5 -73 22 -97 73 -25 53 -22 86 7 100 23 10 24 35 3
72 -18 34 -39 47 -55 34 -12 -10 -18 -7 -32 14 -22 33 -46 135 -32 135 10 0 8
22 -5 77 -8 32 -31 74 -66 117 -17 22 -34 51 -37 65 -3 14 -9 35 -14 46 -4 11
-15 46 -25 78 -9 32 -19 57 -21 54 -3 -2 0 -15 5 -29 25 -65 38 -197 36 -353
-2 -71 -5 -139 -8 -150 -12 -44 -36 -104 -62 -156 -76 -149 -86 -238 -45 -399
30 -118 43 -299 28 -375 -4 -16 -15 -68 -25 -115 -17 -76 -20 -134 -11 -195 5
-32 45 -108 72 -136 49 -53 110 -204 101 -251 -12 -64 -18 -78 -43 -105 -37
-41 -86 -65 -136 -65 -53 -1 -149 47 -197 99 -44 46 -99 137 -99 161 0 10 -4
22 -9 27 -10 10 -24 101 -23 145 0 40 12 109 32 190 59 241 48 397 -44 579
-31 63 -60 139 -72 192 -22 97 -34 284 -20 327 4 12 9 35 11 50 3 15 7 38 10
52 2 14 7 45 10 70 3 25 8 70 12 100 4 30 7 63 6 73 0 9 4 17 8 17 5 0 8 3 7
8 -1 4 3 23 9 42 28 86 31 100 27 100 -6 0 -72 -142 -78 -171 -3 -13 -8 -35
-10 -49 -2 -14 -7 -36 -10 -50 -3 -14 -8 -47 -11 -75 -3 -27 -8 -70 -11 -95
-3 -26 -13 -50 -22 -57 -43 -31 -100 -92 -121 -128 -43 -78 -126 -111 -162
-64 -16 21 -19 22 -43 9 -14 -7 -26 -20 -26 -28 0 -8 -18 -32 -40 -53 -47 -45
-109 -67 -143 -52 -34 16 -58 -1 -51 -35 6 -30 -15 -59 -75 -102 -34 -23 -101
-36 -101 -18 0 22 -46 0 -63 -29 -18 -32 -18 -33 1 -58 17 -22 19 -30 9 -61
-11 -37 -75 -102 -86 -87 -8 10 -52 35 -56 31 -2 -2 -7 -19 -13 -39 -9 -33 -7
-39 19 -63 16 -15 29 -37 29 -49 0 -12 4 -28 9 -36 6 -9 2 -25 -10 -45 l-18
-32 59 -62 c56 -58 60 -65 60 -109 0 -69 -32 -126 -91 -165 -56 -36 -72 -40
-149 -40 -66 0 -86 4 -137 30 -53 28 -101 78 -126 132 -17 37 -21 66 -21 160
-1 149 6 193 54 345 34 107 187 393 217 407 5 1 33 37 64 78 56 76 119 143
178 190 17 14 40 32 51 41 10 9 93 53 183 98 172 85 187 96 252 175 22 27 50
59 63 70 12 11 22 23 22 28 0 5 -37 -29 -83 -75 -85 -86 -133 -114 -183 -104
-13 2 -24 1 -24 -4 0 -7 -8 -7 -62 6 -13 3 -58 6 -102 6 -67 1 -80 -2 -92 -19
-8 -11 -33 -26 -56 -34 -38 -13 -58 -14 -119 -9 -9 0 -21 13 -28 27 -6 15 -14
24 -17 21 -4 -3 -16 -2 -28 3 -29 11 -90 -14 -83 -34 23 -60 -104 -154 -165
-122 -27 14 -52 13 -85 -5 -18 -10 -23 -19 -19 -40 5 -35 -27 -81 -75 -108
-38 -22 -99 -28 -99 -11 0 15 -33 12 -57 -5 -16 -11 -21 -23 -18 -45 6 -48
-76 -112 -130 -100 -23 5 -115 -24 -115 -36 0 -17 -57 -59 -95 -70 -43 -14
-82 -6 -88 16 -5 19 -7 19 -59 4 -29 -9 -56 -22 -61 -30 -27 -47 -79 -57 -141
-27 -24 11 -40 28 -50 54 -14 35 -17 37 -53 32 -33 -4 -44 0 -78 30 -28 24
-40 43 -40 63 -1 24 -13 37 -72 76 -80 53 -114 92 -135 158 -32 98 -1 192 79
241 17 11 53 21 79 23 101 8 163 -52 178 -169 19 -157 57 -200 173 -196 31 1
59 3 63 6 3 2 19 6 35 9 34 6 167 72 192 95 10 9 28 23 39 31 19 14 152 131
193 171 30 30 168 129 179 129 5 0 12 4 14 9 2 5 55 34 118 65 63 31 159 80
213 109 64 35 110 54 135 55 152 6 252 13 280 21 17 5 32 7 32 4 0 -3 6 0 13
6 8 6 16 8 19 6 8 -8 131 78 136 94 3 8 -13 0 -35 -18 -41 -33 -133 -67 -207
-77 -23 -3 -93 -7 -157 -9 -107 -2 -185 -17 -200 -39 -10 -13 -65 3 -84 24 -9
10 -18 30 -19 44 0 14 -3 26 -6 27 -3 1 -19 2 -37 4 -17 1 -44 14 -59 28 -23
21 -26 31 -21 61 5 31 2 39 -26 62 -18 15 -33 22 -35 15 -10 -31 -74 -3 -131
57 -26 27 -30 37 -25 66 4 28 1 37 -15 46 -15 7 -27 8 -40 0 -57 -30 -151 6
-168 65 -15 54 -96 44 -85 -10 5 -29 -17 -59 -60 -81 -36 -18 -57 -18 -80 3
-17 15 -19 15 -33 -3 -16 -21 -19 -38 -17 -98 1 -33 8 -57 40 -146 42 -119 9
-220 -88 -270 -42 -21 -107 -19 -186 6 -141 44 -217 207 -177 378 12 52 66
165 96 203 40 49 197 199 245 235 31 24 63 48 70 55 6 6 21 15 32 18 11 3 20
10 20 14 0 4 6 8 13 9 6 0 32 7 57 15 99 30 296 -7 430 -81 74 -41 83 -46 99
-59 147 -108 204 -154 246 -194 28 -27 56 -49 62 -49 6 0 13 -4 15 -8 2 -5 23
-22 48 -38 114 -77 199 -94 307 -63 111 31 217 93 303 177 33 33 34 35 15 48
-82 59 -178 192 -188 261 -2 12 -5 25 -8 27 -10 10 0 158 12 172 6 8 9 14 6
14 -4 0 2 20 13 45 11 25 16 45 12 45 -4 0 -2 4 3 8 6 4 21 27 34 51 l23 43
-20 42 c-11 22 -27 59 -37 81 -9 22 -25 56 -35 75 -44 86 -122 321 -135 407
-2 12 -6 34 -9 50 -17 80 -23 257 -12 348 8 69 30 155 58 225 33 83 89 193
100 198 5 2 8 10 8 18 0 8 4 14 9 14 5 0 14 14 21 30 7 17 16 30 21 30 5 0 9
4 9 9 0 20 231 261 251 261 4 0 14 6 21 13 23 21 91 62 153 91 151 71 284 105
428 111 43 2 81 6 84 9 3 3 9 3 13 1 4 -3 38 -7 76 -10z"/>
<path d="M4793 6950 c-106 -25 -128 -126 -39 -181 76 -48 176 29 155 119 -13
59 -48 78 -116 62z"/>
<path d="M5050 6812 c-61 -27 -93 -81 -76 -129 17 -47 60 -76 114 -76 38 0 49
4 69 29 49 59 8 185 -60 183 -18 0 -39 -3 -47 -7z"/>
<path d="M4827 6650 c-51 -57 -21 -128 51 -121 22 2 62 52 62 78 0 28 -41 73
-68 73 -10 0 -31 -14 -45 -30z"/>
<path d="M5254 6659 c-25 -13 -47 -55 -37 -72 21 -34 40 -47 70 -47 26 0 37 6
52 31 19 31 18 61 -3 78 -19 16 -60 21 -82 10z"/>
<path d="M5315 6458 c-95 -54 -89 -182 10 -214 108 -35 194 60 143 156 -33 61
-102 87 -153 58z"/>
<path d="M3704 6426 c-7 -7 -22 -21 -35 -32 -49 -39 -108 -140 -123 -209 -3
-16 -9 -41 -12 -55 -10 -45 -11 -214 -2 -285 5 -39 18 -101 29 -140 21 -69 68
-185 79 -195 4 -3 9 -12 12 -20 10 -27 97 -137 134 -169 65 -58 67 -30 3 51
-63 80 -152 283 -165 373 -1 11 -3 20 -4 20 -6 0 -12 79 -12 180 0 80 5 144
17 190 9 39 18 79 21 90 2 11 8 29 13 40 6 11 17 37 26 58 8 20 22 53 30 71
15 36 9 53 -11 32z"/>
<path d="M5446 6167 c-9 -7 -20 -27 -26 -45 -8 -29 -6 -37 14 -57 16 -16 30
-21 50 -18 45 9 69 84 37 116 -15 15 -57 17 -75 4z"/>
<path d="M5328 5968 c-86 -50 -89 -179 -6 -241 51 -38 141 -25 184 26 46 55
26 167 -39 219 -30 24 -94 22 -139 -4z"/>
<path d="M3686 5040 c-59 -71 -89 -200 -66 -290 6 -25 12 -50 13 -55 5 -19 48
-97 62 -111 7 -8 24 -15 36 -16 21 -3 24 3 31 47 9 51 11 211 5 275 -2 19 -10
62 -17 95 -7 33 -13 66 -13 73 0 21 -24 13 -51 -18z"/>
<path d="M5328 5042 c-9 -9 -16 -24 -16 -32 -3 -40 -10 -82 -15 -87 -4 -3 -2
-14 4 -24 7 -13 6 -19 -1 -19 -6 0 -9 -4 -6 -9 3 -4 7 -42 10 -84 3 -41 10
-95 17 -118 7 -24 13 -46 14 -49 15 -62 41 -68 78 -17 16 22 30 46 32 55 2 10
10 37 17 62 18 57 17 164 -2 210 -19 49 -53 92 -88 112 -28 17 -30 17 -44 0z"/>
</g>
</svg>
