<svg id="Layer_1" data-name="Layer 1" xmlns="http://www.w3.org/2000/svg" xmlns:xlink="http://www.w3.org/1999/xlink" viewBox="0 0 330.52 280.59"><defs><style>.cls-1{fill:none;}.cls-1,.cls-2{stroke:#000;stroke-linecap:round;stroke-linejoin:round;stroke-width:5.52px;}.cls-2{fill:#fff;}.cls-3{mask:url(#mask);}.cls-4{filter:url(#luminosity-noclip);}</style><filter id="luminosity-noclip" x="37.19" y="192.7" width="260.62" height="90.09" filterUnits="userSpaceOnUse" color-interpolation-filters="sRGB"><feFlood flood-color="#fff" result="bg"/><feBlend in="SourceGraphic" in2="bg"/></filter><mask id="mask" x="34.95" y="190.5" width="260.62" height="90.09" maskUnits="userSpaceOnUse"><g class="cls-4"><g transform="translate(-2.24 -2.21)"><rect x="75.49" y="206.43" width="180.39" height="52.82"/></g></g></mask></defs><title>logo-full</title><path class="cls-1" d="M126.67,35.13a71,71,0,0,0-7.84,64.59" transform="translate(-2.24 -2.21)"/><path class="cls-1" d="M163.79,5a66.09,66.09,0,0,1,38.77,11.87C216.79,27,226.5,43,229.67,60.19c3.09,16.76,0,34-7.49,49.21-1.43,2.9-3.79,6.06-3.64,9.43s2.65,5.83,4.44,8.55c4.64,7.09,4.6,16.69.84,24.29-2.24,4.52-5.78,8.87-3.4,14.06,2.16,4.72,7.56,10.38,12.82,11.22,4.91.78,9.6-2,13.78-4.72l30.69-19.77c9.74-6.28,21.06-12.83,32.24-9.78a21.1,21.1,0,0,1,14.14,13.21c1.72,5,1.35,10.88-2,15s-9.85,5.54-14.07,2.41c-4.82-3.58-3.67-11.07,1.33-13.79" transform="translate(-2.24 -2.21)"/><path class="cls-1" d="M207.34,157.38c1.56-1,2.84-4.07,3.66-5.7a26.45,26.45,0,0,0,2.41-6.82c.9-4.61.18-9.7-2.71-13.4-2-2.61-4.9-3.53-6.63-.09a16.93,16.93,0,0,0-1.51,6.77,37,37,0,0,0,.89,10.09C204.15,151.27,205.06,155.14,207.34,157.38Z" transform="translate(-2.24 -2.21)"/><path class="cls-1" d="M163.79,5C150,4.85,142.86,8.86,131.65,16.84,117.42,27,107.71,43,104.54,60.19c-3.09,16.76,0,34,7.49,49.21,1.43,2.9,3.79,6.06,3.64,9.43s-2.65,5.83-4.44,8.55c-4.64,7.09-4.6,16.69-.84,24.29,2.24,4.52,5.78,8.87,3.4,14.06-2.16,4.72-7.56,10.38-12.82,11.22-4.91.78-9.6-2-13.78-4.72L56.5,152.47c-9.74-6.28-21.06-12.83-32.24-9.78a21.1,21.1,0,0,0-14.14,13.21c-1.72,5-1.35,10.88,2,15s9.85,5.54,14.07,2.41c4.82-3.58,3.67-11.07-1.33-13.79" transform="translate(-2.24 -2.21)"/><path class="cls-1" d="M126.08,157.19c-1.56-1-2.84-4.07-3.66-5.7a26.45,26.45,0,0,1-2.41-6.82c-.9-4.61-.18-9.7,2.71-13.4,2-2.61,4.9-3.53,6.63-.09a16.93,16.93,0,0,1,1.51,6.77A37,37,0,0,1,130,148C129.28,151.07,128.37,154.94,126.08,157.19Z" transform="translate(-2.24 -2.21)"/><path class="cls-1" d="M130.08,180.63c-.56,13.93-24.1,13.52-33.38,12-26.63-4.3-55.43-15.79-80.17,1.73-5.66,4-10.44,10.22-11.38,17.23-.78,5.79,1.41,12.13,6.2,15.48a13.94,13.94,0,0,0,10.75,1.77c3.29-.84,5.89-3.07,5.93-7a6.19,6.19,0,0,0-4.22-5.94" transform="translate(-2.24 -2.21)"/><path class="cls-1" d="M204.92,180.63c.56,13.93,24.1,13.52,33.38,12,26.63-4.3,55.43-15.79,80.17,1.73,5.66,4,10.44,10.22,11.38,17.23.78,5.79-1.41,12.13-6.2,15.48-5.33,3.74-16.6,3-16.68-5.28a6.19,6.19,0,0,1,4.22-5.94" transform="translate(-2.24 -2.21)"/><rect class="cls-2" x="13.91" y="204.16" width="302.71" height="52.48"/><path d="M45.43,243.37l-6.86-10.93-2.29,2.09v7.82a2,2,0,0,1-4.07,0V222.8a2,2,0,0,1,2.05-2,2,2,0,0,1,2,2v6.59l8.25-8a2.13,2.13,0,0,1,3,0,1.93,1.93,0,0,1-.1,2.88l-5.7,5.23,7.09,11.63A2,2,0,1,1,45.43,243.37Z" transform="translate(-2.24 -2.21)"/><path d="M76.12,222.87v12.36c0,5.66-3.81,9.31-9.44,9.31s-9.47-3.64-9.47-9.31V222.87a2,2,0,1,1,4.07,0v12.36c0,3.31,2.19,5.3,5.4,5.3a5,5,0,0,0,5.37-5.3V222.87a2,2,0,0,1,2-2.05A2,2,0,0,1,76.12,222.87Z" transform="translate(-2.24 -2.21)"/><path d="M102.37,237.61c0,4-2.95,6.59-7.72,6.59H87.27a2.08,2.08,0,0,1-2.05-2V223.06A2.09,2.09,0,0,1,87.27,221h6.66c4.37,0,7.09,2.32,7.09,5.93a5.28,5.28,0,0,1-2.62,4.8A5.94,5.94,0,0,1,102.37,237.61Zm-13.12-7.52H94c2,0,3-1,3-2.62s-1.06-2.58-3-2.58h-4.7Zm9.08,7c0-2.09-1.29-3.25-3.64-3.25H89.25v6.49h5.43C97,240.32,98.33,239.16,98.33,237.08Z" transform="translate(-2.24 -2.21)"/><path d="M110.87,242.18V223.06a2,2,0,0,1,2.05-2.05h10.47a2,2,0,1,1,0,4h-8.45v5.4h7.16a2,2,0,1,1,0,4h-7.16v5.8h8.45a2,2,0,1,1,0,4H112.92A2,2,0,0,1,110.87,242.18Z" transform="translate(-2.24 -2.21)"/><path d="M144.37,233.2a2,2,0,0,1-2,2h-6.89a2,2,0,1,1,0-4h6.89A2,2,0,0,1,144.37,233.2Z" transform="translate(-2.24 -2.21)"/><path d="M166.77,243.47l-5.9-8.45h-3.35v7.35a2,2,0,0,1-4.07,0V223.06a2.09,2.09,0,0,1,2.05-2.05h7c4.57,0,7.42,2.72,7.42,7a6.42,6.42,0,0,1-4.47,6.52l4.51,6.49A2,2,0,1,1,166.77,243.47ZM157.53,231h5c2.12,0,3.38-1.09,3.38-3s-1.26-3.08-3.38-3.08h-5Z" transform="translate(-2.24 -2.21)"/><path d="M178.11,232.6a12.14,12.14,0,1,1,12.12,11.93A11.88,11.88,0,0,1,178.11,232.6Zm20.11,0a7.69,7.69,0,0,0-7.88-7.85,7.85,7.85,0,1,0,7.88,7.85Z" transform="translate(-2.24 -2.21)"/><path d="M229.24,222.87v12.36c0,5.66-3.81,9.31-9.44,9.31s-9.47-3.64-9.47-9.31V222.87a2,2,0,1,1,4.07,0v12.36c0,3.31,2.19,5.3,5.4,5.3a5,5,0,0,0,5.37-5.3V222.87a2,2,0,0,1,2-2.05A2,2,0,0,1,229.24,222.87Z" transform="translate(-2.24 -2.21)"/><path d="M254.3,223a2,2,0,0,1-2.05,2h-4.87v17.39a2,2,0,0,1-4.07,0V225h-4.87a2,2,0,1,1,0-4h13.81A2,2,0,0,1,254.3,223Z" transform="translate(-2.24 -2.21)"/><path d="M262.07,242.18V223.06a2,2,0,0,1,2.05-2.05h10.47a2,2,0,1,1,0,4h-8.45v5.4h7.16a2,2,0,1,1,0,4h-7.16v5.8h8.45a2,2,0,1,1,0,4H264.12A2,2,0,0,1,262.07,242.18Z" transform="translate(-2.24 -2.21)"/><path d="M299,243.47l-5.9-8.45H289.8v7.35a2,2,0,0,1-4.07,0V223.06a2.09,2.09,0,0,1,2.05-2.05h7c4.57,0,7.42,2.72,7.42,7a6.42,6.42,0,0,1-4.47,6.52l4.5,6.49A2,2,0,1,1,299,243.47ZM289.8,231h5c2.12,0,3.38-1.09,3.38-3s-1.26-3.08-3.38-3.08h-5Z" transform="translate(-2.24 -2.21)"/><g class="cls-3"><path class="cls-1" d="M142.71,195.46c-7.88,13-16,26-24.09,38.87C107.48,252,96.8,274.86,74.12,279.25c-11,2.14-26,.29-32.13-10.47a14.51,14.51,0,0,1-1.66-10.56,11.41,11.41,0,0,1,6.9-7.95,9.42,9.42,0,0,1,10,2.35c2.58,2.9,2.77,8-.13,10.82" transform="translate(-2.24 -2.21)"/><path class="cls-1" d="M192.29,195.46c7.88,13,16,26,24.09,38.87,11.13,17.68,21.81,40.53,44.49,44.92,11,2.14,26,.29,32.13-10.47a14.51,14.51,0,0,0,1.66-10.56,11.41,11.41,0,0,0-6.9-7.95,9.42,9.42,0,0,0-10,2.35c-2.58,2.9-2.77,8,.13,10.82" transform="translate(-2.24 -2.21)"/></g></svg>