<svg id="Layer_1" data-name="Layer 1" xmlns="http://www.w3.org/2000/svg" viewBox="0 0 203.65 38.32"><defs><style>.cls-1{fill:#fff;stroke:#000;stroke-linecap:round;stroke-linejoin:round;stroke-width:3.65px;}</style></defs><title>logo-text-only</title><rect class="cls-1" x="1.82" y="1.82" width="200" height="34.67"/><path d="M24.35,27.11l-4.53-7.22-1.51,1.38v5.16a1.35,1.35,0,1,1-2.69,0V13.52A1.31,1.31,0,0,1,17,12.21a1.3,1.3,0,0,1,1.33,1.33V17.9l5.45-5.27a1.41,1.41,0,0,1,2,0,1.28,1.28,0,0,1-.07,1.9L21.9,18l4.68,7.68A1.34,1.34,0,1,1,24.35,27.11Z" transform="translate(-3.18 -0.84)"/><path d="M44.63,13.57v8.16a5.84,5.84,0,0,1-6.24,6.15c-3.72,0-6.26-2.41-6.26-6.15V13.57a1.35,1.35,0,1,1,2.69,0v8.16a3.3,3.3,0,0,0,3.57,3.5,3.29,3.29,0,0,0,3.55-3.5V13.57a1.31,1.31,0,0,1,1.33-1.36A1.32,1.32,0,0,1,44.63,13.57Z" transform="translate(-3.18 -0.84)"/><path d="M62,23.3c0,2.65-1.95,4.36-5.1,4.36H52a1.37,1.37,0,0,1-1.36-1.33V13.7A1.38,1.38,0,0,1,52,12.34h4.4c2.89,0,4.68,1.53,4.68,3.92a3.49,3.49,0,0,1-1.73,3.17A3.93,3.93,0,0,1,62,23.3Zm-8.67-5h3.11c1.31,0,2-.63,2-1.73s-.7-1.71-2-1.71H53.3Zm6,4.62c0-1.38-.85-2.14-2.41-2.14H53.3V25.1h3.59C58.45,25.1,59.3,24.33,59.3,23Z" transform="translate(-3.18 -0.84)"/><path d="M67.58,26.32V13.7a1.34,1.34,0,0,1,1.36-1.36h6.92a1.32,1.32,0,1,1,0,2.65H70.27v3.57H75a1.31,1.31,0,1,1,0,2.63H70.27V25h5.58a1.32,1.32,0,1,1,0,2.65H68.94A1.33,1.33,0,0,1,67.58,26.32Z" transform="translate(-3.18 -0.84)"/><path d="M89.72,20.39a1.3,1.3,0,0,1-1.33,1.31H83.83a1.31,1.31,0,1,1,0-2.63h4.55A1.29,1.29,0,0,1,89.72,20.39Z" transform="translate(-3.18 -0.84)"/><path d="M104.52,27.18l-3.9-5.58H98.41v4.86a1.35,1.35,0,0,1-2.69,0V13.7a1.38,1.38,0,0,1,1.36-1.36h4.64c3,0,4.9,1.79,4.9,4.64a4.24,4.24,0,0,1-3,4.31l3,4.29A1.33,1.33,0,1,1,104.52,27.18ZM98.41,19h3.3c1.4,0,2.23-.72,2.23-2a2,2,0,0,0-2.23-2h-3.3Z" transform="translate(-3.18 -0.84)"/><path d="M112,20a8,8,0,1,1,8,7.88A7.85,7.85,0,0,1,112,20Zm13.29,0a5.08,5.08,0,0,0-5.21-5.19A5.19,5.19,0,1,0,125.3,20Z" transform="translate(-3.18 -0.84)"/><path d="M145.79,13.57v8.16a5.84,5.84,0,0,1-6.24,6.15c-3.72,0-6.26-2.41-6.26-6.15V13.57a1.35,1.35,0,1,1,2.69,0v8.16a3.56,3.56,0,0,0,7.11,0V13.57a1.31,1.31,0,0,1,1.33-1.36A1.32,1.32,0,0,1,145.79,13.57Z" transform="translate(-3.18 -0.84)"/><path d="M162.35,13.65A1.32,1.32,0,0,1,161,15h-3.22V26.48a1.35,1.35,0,0,1-2.69,0V15h-3.22a1.32,1.32,0,1,1,0-2.65H161A1.31,1.31,0,0,1,162.35,13.65Z" transform="translate(-3.18 -0.84)"/><path d="M167.48,26.32V13.7a1.34,1.34,0,0,1,1.36-1.36h6.92a1.32,1.32,0,1,1,0,2.65h-5.58v3.57h4.73a1.31,1.31,0,1,1,0,2.63h-4.73V25h5.58a1.32,1.32,0,1,1,0,2.65h-6.92A1.33,1.33,0,0,1,167.48,26.32Z" transform="translate(-3.18 -0.84)"/><path d="M191.91,27.18,188,21.6h-2.21v4.86a1.35,1.35,0,0,1-2.69,0V13.7a1.38,1.38,0,0,1,1.36-1.36h4.64c3,0,4.9,1.79,4.9,4.64a4.24,4.24,0,0,1-3,4.31l3,4.29A1.33,1.33,0,1,1,191.91,27.18ZM185.81,19h3.3c1.4,0,2.23-.72,2.23-2a2,2,0,0,0-2.23-2h-3.3Z" transform="translate(-3.18 -0.84)"/></svg>