<svg id="Layer_1" data-name="Layer 1" xmlns="http://www.w3.org/2000/svg" xmlns:xlink="http://www.w3.org/1999/xlink" viewBox="0 0 330.52 280.59"><defs><style>.cls-1{fill:none;}.cls-1,.cls-2{stroke:#000;stroke-linecap:round;stroke-linejoin:round;stroke-width:5.52px;}.cls-2{fill:#fff;}.cls-3{mask:url(#mask);}.cls-4{filter:url(#luminosity-noclip);}</style><filter id="luminosity-noclip" x="44.69" y="207.7" width="260.62" height="90.09" filterUnits="userSpaceOnUse" color-interpolation-filters="sRGB"><feFlood flood-color="#fff" result="bg"/><feBlend in="SourceGraphic" in2="bg"/></filter><mask id="mask" x="34.95" y="190.5" width="260.62" height="90.09" maskUnits="userSpaceOnUse"><g class="cls-4"><g transform="translate(-9.74 -17.21)"><rect x="82.99" y="221.43" width="180.39" height="52.82"/></g></g></mask></defs><title>logo-full-svg</title><path class="cls-1" d="M134.17,50.13a71,71,0,0,0-7.84,64.59" transform="translate(-9.74 -17.21)"/><path class="cls-1" d="M171.29,20a66.09,66.09,0,0,1,38.77,11.87C224.29,42,234,58,237.17,75.19c3.09,16.76,0,34-7.49,49.21-1.43,2.9-3.79,6.06-3.64,9.43s2.65,5.83,4.44,8.55c4.64,7.09,4.6,16.69.84,24.29-2.24,4.52-5.78,8.87-3.4,14.06,2.16,4.72,7.56,10.38,12.82,11.22,4.91.78,9.6-2,13.78-4.72l30.69-19.77c9.74-6.28,21.06-12.83,32.24-9.78a21.1,21.1,0,0,1,14.14,13.21c1.72,5,1.35,10.88-2,15s-9.85,5.54-14.07,2.41c-4.82-3.58-3.67-11.07,1.33-13.79" transform="translate(-9.74 -17.21)"/><path class="cls-1" d="M214.84,172.38c1.56-1,2.84-4.07,3.66-5.7a26.45,26.45,0,0,0,2.41-6.82c.9-4.61.18-9.7-2.71-13.4-2-2.61-4.9-3.53-6.63-.09a16.93,16.93,0,0,0-1.51,6.77,37,37,0,0,0,.89,10.09C211.65,166.27,212.56,170.14,214.84,172.38Z" transform="translate(-9.74 -17.21)"/><path class="cls-1" d="M171.29,20c-13.76-.12-20.93,3.88-32.14,11.87C124.92,42,115.21,58,112,75.19c-3.09,16.76,0,34,7.49,49.21,1.43,2.9,3.79,6.06,3.64,9.43s-2.65,5.83-4.44,8.55c-4.64,7.09-4.6,16.69-.84,24.29,2.24,4.52,5.78,8.87,3.4,14.06-2.16,4.72-7.56,10.38-12.82,11.22-4.91.78-9.6-2-13.78-4.72L64,167.47c-9.74-6.28-21.06-12.83-32.24-9.78a21.1,21.1,0,0,0-14.14,13.21c-1.72,5-1.35,10.88,2,15s9.85,5.54,14.07,2.41c4.82-3.58,3.67-11.07-1.33-13.79" transform="translate(-9.74 -17.21)"/><path class="cls-1" d="M133.58,172.19c-1.56-1-2.84-4.07-3.66-5.7a26.45,26.45,0,0,1-2.41-6.82c-.9-4.61-.18-9.7,2.71-13.4,2-2.61,4.9-3.53,6.63-.09a16.93,16.93,0,0,1,1.51,6.77,37,37,0,0,1-.89,10.09C136.78,166.07,135.87,169.94,133.58,172.19Z" transform="translate(-9.74 -17.21)"/><path class="cls-1" d="M137.58,195.63c-.56,13.93-24.1,13.52-33.38,12-26.63-4.3-55.43-15.79-80.17,1.73-5.66,4-10.44,10.22-11.38,17.23-.78,5.79,1.41,12.13,6.2,15.48a13.94,13.94,0,0,0,10.75,1.77c3.29-.84,5.89-3.07,5.93-7a6.19,6.19,0,0,0-4.22-5.94" transform="translate(-9.74 -17.21)"/><path class="cls-1" d="M212.42,195.63c.56,13.93,24.1,13.52,33.38,12,26.63-4.3,55.43-15.79,80.17,1.73,5.66,4,10.44,10.22,11.38,17.23.78,5.79-1.41,12.13-6.2,15.48-5.33,3.74-16.6,3-16.68-5.28a6.19,6.19,0,0,1,4.22-5.94" transform="translate(-9.74 -17.21)"/><rect class="cls-2" x="13.91" y="204.16" width="302.71" height="52.48"/><path d="M52.93,258.37l-6.86-10.93-2.29,2.09v7.82a2,2,0,0,1-4.07,0V237.8a2,2,0,0,1,2.05-2,2,2,0,0,1,2,2v6.59l8.25-8a2.13,2.13,0,0,1,3,0,1.93,1.93,0,0,1-.1,2.88l-5.7,5.23,7.09,11.63A2,2,0,1,1,52.93,258.37Z" transform="translate(-9.74 -17.21)"/><path d="M83.62,237.87v12.36c0,5.66-3.81,9.31-9.44,9.31s-9.47-3.64-9.47-9.31V237.87a2,2,0,1,1,4.07,0v12.36c0,3.31,2.19,5.3,5.4,5.3a5,5,0,0,0,5.37-5.3V237.87a2,2,0,0,1,2-2.05A2,2,0,0,1,83.62,237.87Z" transform="translate(-9.74 -17.21)"/><path d="M109.87,252.61c0,4-2.95,6.59-7.72,6.59H94.77a2.08,2.08,0,0,1-2.05-2V238.06A2.09,2.09,0,0,1,94.77,236h6.66c4.37,0,7.09,2.32,7.09,5.93a5.28,5.28,0,0,1-2.62,4.8A5.94,5.94,0,0,1,109.87,252.61Zm-13.12-7.52h4.7c2,0,3-1,3-2.62s-1.06-2.58-3-2.58h-4.7Zm9.08,7c0-2.09-1.29-3.25-3.64-3.25H96.75v6.49h5.43C104.54,255.32,105.83,254.16,105.83,252.08Z" transform="translate(-9.74 -17.21)"/><path d="M118.37,257.18V238.06a2,2,0,0,1,2.05-2.05h10.47a2,2,0,1,1,0,4h-8.45v5.4h7.16a2,2,0,1,1,0,4h-7.16v5.8h8.45a2,2,0,1,1,0,4H120.42A2,2,0,0,1,118.37,257.18Z" transform="translate(-9.74 -17.21)"/><path d="M151.87,248.2a2,2,0,0,1-2,2H143a2,2,0,1,1,0-4h6.89A2,2,0,0,1,151.87,248.2Z" transform="translate(-9.74 -17.21)"/><path d="M174.27,258.47l-5.9-8.45H165v7.35a2,2,0,0,1-4.07,0V238.06A2.09,2.09,0,0,1,163,236h7c4.57,0,7.42,2.72,7.42,7a6.42,6.42,0,0,1-4.47,6.52l4.51,6.49A2,2,0,1,1,174.27,258.47ZM165,246h5c2.12,0,3.38-1.09,3.38-3S172.15,240,170,240h-5Z" transform="translate(-9.74 -17.21)"/><path d="M185.61,247.6a12.14,12.14,0,1,1,12.12,11.93A11.88,11.88,0,0,1,185.61,247.6Zm20.11,0a7.69,7.69,0,0,0-7.88-7.85,7.85,7.85,0,1,0,7.88,7.85Z" transform="translate(-9.74 -17.21)"/><path d="M236.74,237.87v12.36c0,5.66-3.81,9.31-9.44,9.31s-9.47-3.64-9.47-9.31V237.87a2,2,0,1,1,4.07,0v12.36c0,3.31,2.19,5.3,5.4,5.3a5,5,0,0,0,5.37-5.3V237.87a2,2,0,0,1,2-2.05A2,2,0,0,1,236.74,237.87Z" transform="translate(-9.74 -17.21)"/><path d="M261.8,238a2,2,0,0,1-2.05,2h-4.87v17.39a2,2,0,0,1-4.07,0V240h-4.87a2,2,0,1,1,0-4h13.81A2,2,0,0,1,261.8,238Z" transform="translate(-9.74 -17.21)"/><path d="M269.57,257.18V238.06a2,2,0,0,1,2.05-2.05h10.47a2,2,0,1,1,0,4h-8.45v5.4h7.16a2,2,0,1,1,0,4h-7.16v5.8h8.45a2,2,0,1,1,0,4H271.62A2,2,0,0,1,269.57,257.18Z" transform="translate(-9.74 -17.21)"/><path d="M306.55,258.47l-5.9-8.45H297.3v7.35a2,2,0,0,1-4.07,0V238.06a2.09,2.09,0,0,1,2.05-2.05h7c4.57,0,7.42,2.72,7.42,7a6.42,6.42,0,0,1-4.47,6.52l4.5,6.49A2,2,0,1,1,306.55,258.47ZM297.3,246h5c2.12,0,3.38-1.09,3.38-3s-1.26-3.08-3.38-3.08h-5Z" transform="translate(-9.74 -17.21)"/><g class="cls-3"><path class="cls-1" d="M150.21,210.46c-7.88,13-16,26-24.09,38.87C115,267,104.3,289.86,81.62,294.25c-11,2.14-26,.29-32.13-10.47a14.51,14.51,0,0,1-1.66-10.56,11.41,11.41,0,0,1,6.9-7.95,9.42,9.42,0,0,1,10,2.35c2.58,2.9,2.77,8-.13,10.82" transform="translate(-9.74 -17.21)"/><path class="cls-1" d="M199.79,210.46c7.88,13,16,26,24.09,38.87C235,267,245.7,289.86,268.38,294.25c11,2.14,26,.29,32.13-10.47a14.51,14.51,0,0,0,1.66-10.56,11.41,11.41,0,0,0-6.9-7.95,9.42,9.42,0,0,0-10,2.35c-2.58,2.9-2.77,8,.13,10.82" transform="translate(-9.74 -17.21)"/></g></svg>