<?xml version="1.0" encoding="UTF-8" standalone="no"?>
<svg
   xmlns:dc="http://purl.org/dc/elements/1.1/"
   xmlns:cc="http://creativecommons.org/ns#"
   xmlns:rdf="http://www.w3.org/1999/02/22-rdf-syntax-ns#"
   xmlns:svg="http://www.w3.org/2000/svg"
   xmlns="http://www.w3.org/2000/svg"
   xmlns:sodipodi="http://sodipodi.sourceforge.net/DTD/sodipodi-0.dtd"
   xmlns:inkscape="http://www.inkscape.org/namespaces/inkscape"
   id="Layer_1"
   data-name="Layer 1"
   viewBox="0 0 203.65 38.32"
   version="1.1"
   sodipodi:docname="logo-text-only.svg"
   inkscape:version="0.92.2 5c3e80d, 2017-08-06">
  <metadata
     id="metadata147">
    <rdf:RDF>
      <cc:Work
         rdf:about="">
        <dc:format>image/svg+xml</dc:format>
        <dc:type
           rdf:resource="http://purl.org/dc/dcmitype/StillImage" />
      </cc:Work>
    </rdf:RDF>
  </metadata>
  <sodipodi:namedview
     pagecolor="#ffffff"
     bordercolor="#666666"
     borderopacity="1"
     objecttolerance="10"
     gridtolerance="10"
     guidetolerance="10"
     inkscape:pageopacity="0"
     inkscape:pageshadow="2"
     inkscape:window-width="1280"
     inkscape:window-height="773"
     id="namedview145"
     showgrid="false"
     inkscape:zoom="3.7859073"
     inkscape:cx="106.4474"
     inkscape:cy="19.16"
     inkscape:window-x="0"
     inkscape:window-y="27"
     inkscape:window-maximized="1"
     inkscape:current-layer="Layer_1" />
  <defs
     id="defs116">
    <inkscape:tag
       id="Set 1" />
    <style
       id="style114">.cls-1{fill:#fff;stroke:#000;stroke-linecap:round;stroke-linejoin:round;stroke-width:3.65px;}</style>
  </defs>
  <title
     id="title118">logo-text-only</title>
  <rect
     class="cls-1"
     x="1.82"
     y="1.82"
     width="200"
     height="34.67"
     id="rect120"
     inkscape:label="border" />
  <g
     id="text"
     inkscape:label="text">
    <path
       id="path122"
       transform="translate(-3.18,-0.84)"
       d="m 24.35,27.11 -4.53,-7.22 -1.51,1.38 v 5.16 a 1.35,1.35 0 1 1 -2.69,0 V 13.52 a 1.31,1.31 0 0 1 1.38,-1.31 1.3,1.3 0 0 1 1.33,1.33 v 4.36 l 5.45,-5.27 a 1.41,1.41 0 0 1 2,0 1.28,1.28 0 0 1 -0.07,1.9 L 21.9,18 l 4.68,7.68 a 1.34,1.34 0 1 1 -2.23,1.43 z"
       inkscape:connector-curvature="0" />
    <path
       id="path124"
       transform="translate(-3.18,-0.84)"
       d="m 44.63,13.57 v 8.16 a 5.84,5.84 0 0 1 -6.24,6.15 c -3.72,0 -6.26,-2.41 -6.26,-6.15 v -8.16 a 1.35,1.35 0 1 1 2.69,0 v 8.16 a 3.3,3.3 0 0 0 3.57,3.5 3.29,3.29 0 0 0 3.55,-3.5 v -8.16 a 1.31,1.31 0 0 1 1.33,-1.36 1.32,1.32 0 0 1 1.36,1.36 z"
       inkscape:connector-curvature="0" />
    <path
       id="path126"
       transform="translate(-3.18,-0.84)"
       d="m 62,23.3 c 0,2.65 -1.95,4.36 -5.1,4.36 H 52 A 1.37,1.37 0 0 1 50.64,26.33 V 13.7 A 1.38,1.38 0 0 1 52,12.34 h 4.4 c 2.89,0 4.68,1.53 4.68,3.92 A 3.49,3.49 0 0 1 59.35,19.43 3.93,3.93 0 0 1 62,23.3 Z m -8.67,-5 h 3.11 c 1.31,0 2,-0.63 2,-1.73 0,-1.1 -0.7,-1.71 -2,-1.71 H 53.3 Z m 6,4.62 c 0,-1.38 -0.85,-2.14 -2.41,-2.14 H 53.3 v 4.32 h 3.59 c 1.56,0 2.41,-0.77 2.41,-2.1 z"
       inkscape:connector-curvature="0" />
    <path
       id="path128"
       transform="translate(-3.18,-0.84)"
       d="M 67.58,26.32 V 13.7 a 1.34,1.34 0 0 1 1.36,-1.36 h 6.92 a 1.325,1.325 0 1 1 0,2.65 h -5.59 v 3.57 H 75 a 1.315,1.315 0 1 1 0,2.63 H 70.27 V 25 h 5.58 a 1.325,1.325 0 1 1 0,2.65 h -6.91 a 1.33,1.33 0 0 1 -1.36,-1.33 z"
       inkscape:connector-curvature="0" />
    <path
       id="path130"
       transform="translate(-3.18,-0.84)"
       d="m 89.72,20.39 a 1.3,1.3 0 0 1 -1.33,1.31 h -4.56 a 1.315,1.315 0 1 1 0,-2.63 h 4.55 a 1.29,1.29 0 0 1 1.34,1.32 z"
       inkscape:connector-curvature="0" />
    <path
       id="path132"
       transform="translate(-3.18,-0.84)"
       d="m 104.52,27.18 -3.9,-5.58 h -2.21 v 4.86 a 1.35,1.35 0 0 1 -2.69,0 V 13.7 a 1.38,1.38 0 0 1 1.36,-1.36 h 4.64 c 3,0 4.9,1.79 4.9,4.64 a 4.24,4.24 0 0 1 -3,4.31 l 3,4.29 a 1.33,1.33 0 1 1 -2.1,1.6 z M 98.41,19 h 3.3 c 1.4,0 2.23,-0.72 2.23,-2 a 2,2 0 0 0 -2.23,-2 h -3.3 z"
       inkscape:connector-curvature="0" />
    <path
       id="path134"
       transform="translate(-3.18,-0.84)"
       d="m 112,20 a 8,8 0 1 1 8,7.88 7.85,7.85 0 0 1 -8,-7.88 z m 13.29,0 a 5.08,5.08 0 0 0 -5.21,-5.19 5.19,5.19 0 1 0 5.22,5.19 z"
       inkscape:connector-curvature="0" />
    <path
       id="path136"
       transform="translate(-3.18,-0.84)"
       d="m 145.79,13.57 v 8.16 a 5.84,5.84 0 0 1 -6.24,6.15 c -3.72,0 -6.26,-2.41 -6.26,-6.15 v -8.16 a 1.35,1.35 0 1 1 2.69,0 v 8.16 a 3.56,3.56 0 0 0 7.11,0 v -8.16 a 1.31,1.31 0 0 1 1.33,-1.36 1.32,1.32 0 0 1 1.37,1.36 z"
       inkscape:connector-curvature="0" />
    <path
       id="path138"
       transform="translate(-3.18,-0.84)"
       d="M 162.35,13.65 A 1.32,1.32 0 0 1 161,15 h -3.22 v 11.48 a 1.35,1.35 0 0 1 -2.69,0 V 15 h -3.22 a 1.325,1.325 0 1 1 0,-2.65 H 161 a 1.31,1.31 0 0 1 1.35,1.3 z"
       inkscape:connector-curvature="0" />
    <path
       id="path140"
       transform="translate(-3.18,-0.84)"
       d="M 167.48,26.32 V 13.7 a 1.34,1.34 0 0 1 1.36,-1.36 h 6.92 a 1.325,1.325 0 1 1 0,2.65 h -5.58 v 3.57 h 4.73 a 1.315,1.315 0 1 1 0,2.63 h -4.73 V 25 h 5.58 a 1.325,1.325 0 1 1 0,2.65 h -6.92 a 1.33,1.33 0 0 1 -1.36,-1.33 z"
       inkscape:connector-curvature="0" />
    <path
       id="path142"
       transform="translate(-3.18,-0.84)"
       d="M 191.91,27.18 188,21.6 h -2.21 v 4.86 a 1.35,1.35 0 0 1 -2.69,0 V 13.7 a 1.38,1.38 0 0 1 1.36,-1.36 h 4.64 c 3,0 4.9,1.79 4.9,4.64 a 4.24,4.24 0 0 1 -3,4.31 l 3,4.29 a 1.33,1.33 0 1 1 -2.09,1.6 z M 185.81,19 h 3.3 c 1.4,0 2.23,-0.72 2.23,-2 a 2,2 0 0 0 -2.23,-2 h -3.3 z"
       inkscape:connector-curvature="0" />
  </g>
</svg>
