<svg id="Layer_1" data-name="Layer 1" xmlns="http://www.w3.org/2000/svg" viewBox="0 0 53.7 38.83"><defs><style>.cls-1{fill:#fff;stroke:#000;stroke-linecap:round;stroke-linejoin:round;stroke-width:3.7px;}</style></defs><title>logo-shortened-text-only</title><rect class="cls-1" x="1.85" y="1.85" width="50" height="35.13"/><path d="M24.46,27.21l-4.59-7.32-1.53,1.4v5.23a1.36,1.36,0,0,1-2.73,0V13.43A1.33,1.33,0,0,1,17,12.1a1.32,1.32,0,0,1,1.35,1.35v4.41l5.52-5.34a1.43,1.43,0,0,1,2,0,1.29,1.29,0,0,1-.07,1.93L22,17.94l4.75,7.78A1.36,1.36,0,1,1,24.46,27.21Z" transform="translate(-3.15 -0.59)"/><path d="M41.88,27.27l-3.95-5.66H35.7v4.92a1.36,1.36,0,0,1-2.73,0V13.61a1.4,1.4,0,0,1,1.38-1.38H39c3.06,0,5,1.82,5,4.7a4.3,4.3,0,0,1-3,4.37l3,4.35A1.35,1.35,0,1,1,41.88,27.27ZM35.7,19H39c1.42,0,2.26-.73,2.26-2A2,2,0,0,0,39,14.88H35.7Z" transform="translate(-3.15 -0.59)"/></svg>