<svg id="Layer_1" data-name="Layer 1" xmlns="http://www.w3.org/2000/svg" xmlns:xlink="http://www.w3.org/1999/xlink" viewBox="0 0 119.67 101.59"><defs><style>.cls-1{fill:none;}.cls-1,.cls-2{stroke:#000;stroke-linecap:round;stroke-linejoin:round;stroke-width:2px;}.cls-2{fill:#fff;}.cls-3{mask:url(#mask);}.cls-4{filter:url(#luminosity-noclip);}</style><filter id="luminosity-noclip" x="15.32" y="73.18" width="94.36" height="32.62" filterUnits="userSpaceOnUse" color-interpolation-filters="sRGB"><feFlood flood-color="#fff" result="bg"/><feBlend in="SourceGraphic" in2="bg"/></filter><mask id="mask" x="12.65" y="68.97" width="94.36" height="32.62" maskUnits="userSpaceOnUse"><g class="cls-4"><g transform="translate(-2.66 -4.21)"><rect x="29.19" y="78.15" width="65.31" height="19.13"/></g></g></mask></defs><title>logo-full-small</title><path class="cls-1" d="M47.72,16.12a25.71,25.71,0,0,0-2.84,23.39" transform="translate(-2.66 -4.21)"/><path class="cls-1" d="M61.16,5.21a23.93,23.93,0,0,1,14,4.3A24.94,24.94,0,0,1,85,25.2,28.69,28.69,0,0,1,82.29,43c-.52,1.05-1.37,2.19-1.32,3.42s1,2.11,1.61,3.1a9,9,0,0,1,.3,8.79c-.81,1.64-2.09,3.21-1.23,5.09.78,1.71,2.74,3.76,4.64,4.06s3.48-.73,5-1.71l11.11-7.16c3.53-2.27,7.63-4.64,11.67-3.54a7.64,7.64,0,0,1,5.12,4.78,5.73,5.73,0,0,1-.71,5.42,3.88,3.88,0,0,1-5.09.87,3,3,0,0,1,.48-5" transform="translate(-2.66 -4.21)"/><path class="cls-1" d="M76.92,60.39a5.79,5.79,0,0,0,1.33-2.07,9.58,9.58,0,0,0,.87-2.47,6.06,6.06,0,0,0-1-4.85c-.74-.94-1.78-1.28-2.4,0a6.13,6.13,0,0,0-.55,2.45,13.39,13.39,0,0,0,.32,3.65A6.86,6.86,0,0,0,76.92,60.39Z" transform="translate(-2.66 -4.21)"/><path class="cls-1" d="M61.16,5.21c-5,0-7.58,1.41-11.64,4.3A24.94,24.94,0,0,0,39.7,25.2,28.69,28.69,0,0,0,42.42,43c.52,1.05,1.37,2.19,1.32,3.42s-1,2.11-1.61,3.1a9,9,0,0,0-.3,8.79c.81,1.64,2.09,3.21,1.23,5.09-.78,1.71-2.74,3.76-4.64,4.06s-3.48-.73-5-1.71L22.31,58.61c-3.53-2.27-7.63-4.64-11.67-3.54a7.64,7.64,0,0,0-5.12,4.78,5.73,5.73,0,0,0,.71,5.42,3.88,3.88,0,0,0,5.09.87,3,3,0,0,0-.48-5" transform="translate(-2.66 -4.21)"/><path class="cls-1" d="M47.5,60.32a5.79,5.79,0,0,1-1.33-2.07,9.58,9.58,0,0,1-.87-2.47,6.06,6.06,0,0,1,1-4.85c.74-.94,1.78-1.28,2.4,0a6.13,6.13,0,0,1,.55,2.45A13.39,13.39,0,0,1,48.91,57,6.86,6.86,0,0,1,47.5,60.32Z" transform="translate(-2.66 -4.21)"/><path class="cls-1" d="M49,68.8c-.2,5-8.72,4.89-12.09,4.35-9.64-1.56-20.07-5.72-29,.63A9.58,9.58,0,0,0,3.72,80,5.94,5.94,0,0,0,6,85.63a5,5,0,0,0,3.89.64A2.58,2.58,0,0,0,12,83.72a2.24,2.24,0,0,0-1.53-2.15" transform="translate(-2.66 -4.21)"/><path class="cls-1" d="M76,68.8c.2,5,8.72,4.89,12.09,4.35,9.64-1.56,20.07-5.72,29,.63A9.58,9.58,0,0,1,121.28,80a5.94,5.94,0,0,1-2.24,5.6c-1.93,1.35-6,1.1-6-1.91a2.24,2.24,0,0,1,1.53-2.15" transform="translate(-2.66 -4.21)"/><rect class="cls-2" x="5.04" y="73.92" width="109.6" height="19"/><path d="M18.3,91.52l-2.48-4-.83.76v2.83a.74.74,0,1,1-1.48,0V84.07a.72.72,0,0,1,.74-.72.71.71,0,0,1,.73.73v2.39l3-2.89a.77.77,0,0,1,1.08,0,.7.7,0,0,1,0,1L17,86.51l2.57,4.21A.73.73,0,1,1,18.3,91.52Z" transform="translate(-2.66 -4.21)"/><path d="M29.42,84.1v4.47A3.2,3.2,0,0,1,26,91.94a3.21,3.21,0,0,1-3.43-3.37V84.1a.74.74,0,1,1,1.48,0v4.47a1.81,1.81,0,0,0,2,1.92,1.8,1.8,0,0,0,1.94-1.92V84.1a.72.72,0,0,1,.73-.74A.73.73,0,0,1,29.42,84.1Z" transform="translate(-2.66 -4.21)"/><path d="M38.92,89.43c0,1.45-1.07,2.39-2.79,2.39H33.45a.75.75,0,0,1-.74-.73V84.17a.76.76,0,0,1,.74-.74h2.41c1.58,0,2.57.84,2.57,2.15a1.91,1.91,0,0,1-.95,1.74A2.15,2.15,0,0,1,38.92,89.43Zm-4.75-2.72h1.7c.72,0,1.09-.35,1.1-.95s-.38-.94-1.1-.94h-1.7Zm3.29,2.53c0-.76-.47-1.18-1.32-1.18h-2v2.35h2C37,90.42,37.46,90,37.46,89.24Z" transform="translate(-2.66 -4.21)"/><path d="M42,91.09V84.17a.73.73,0,0,1,.74-.74h3.79a.73.73,0,1,1,0,1.45H43.47v2h2.59a.72.72,0,1,1,0,1.44H43.47v2.1h3.06a.73.73,0,1,1,0,1.45H42.74A.73.73,0,0,1,42,91.09Z" transform="translate(-2.66 -4.21)"/><path d="M54.12,87.84a.71.71,0,0,1-.73.72H50.9a.72.72,0,1,1,0-1.44h2.49A.71.71,0,0,1,54.12,87.84Z" transform="translate(-2.66 -4.21)"/><path d="M62.24,91.56,60.1,88.5H58.89v2.66a.74.74,0,0,1-1.48,0v-7a.76.76,0,0,1,.74-.74H60.7A2.43,2.43,0,0,1,63.39,86a2.32,2.32,0,0,1-1.62,2.36l1.63,2.35A.73.73,0,1,1,62.24,91.56Zm-3.35-4.5H60.7c.77,0,1.22-.4,1.22-1.09a1.07,1.07,0,0,0-1.22-1.12H58.89Z" transform="translate(-2.66 -4.21)"/><path d="M66.34,87.62a4.4,4.4,0,1,1,4.39,4.32A4.3,4.3,0,0,1,66.34,87.62Zm7.28,0a2.78,2.78,0,0,0-2.85-2.84,2.84,2.84,0,1,0,2.85,2.84Z" transform="translate(-2.66 -4.21)"/><path d="M84.85,84.1v4.47a3.42,3.42,0,0,1-6.85,0V84.1a.74.74,0,1,1,1.48,0v4.47a1.95,1.95,0,0,0,3.9,0V84.1a.72.72,0,0,1,.73-.74A.73.73,0,0,1,84.85,84.1Z" transform="translate(-2.66 -4.21)"/><path d="M93.93,84.15a.72.72,0,0,1-.74.73H91.42v6.3a.74.74,0,0,1-1.48,0v-6.3H88.18a.73.73,0,1,1,0-1.45h5A.72.72,0,0,1,93.93,84.15Z" transform="translate(-2.66 -4.21)"/><path d="M96.74,91.09V84.17a.73.73,0,0,1,.74-.74h3.79a.73.73,0,1,1,0,1.45H98.21v2h2.59a.72.72,0,1,1,0,1.44H98.21v2.1h3.06a.73.73,0,1,1,0,1.45H97.48A.73.73,0,0,1,96.74,91.09Z" transform="translate(-2.66 -4.21)"/><path d="M110.13,91.56,108,88.5h-1.21v2.66a.74.74,0,0,1-1.48,0v-7a.76.76,0,0,1,.74-.74h2.54A2.43,2.43,0,0,1,111.28,86a2.32,2.32,0,0,1-1.62,2.36l1.63,2.35A.73.73,0,1,1,110.13,91.56Zm-3.35-4.5h1.81c.77,0,1.22-.4,1.22-1.09a1.07,1.07,0,0,0-1.22-1.12h-1.81Z" transform="translate(-2.66 -4.21)"/><g class="cls-3"><path class="cls-1" d="M53.52,74.18c-2.85,4.72-5.78,9.4-8.72,14.07-4,6.4-7.9,14.67-16.11,16.26-4,.77-9.41.1-11.63-3.79a5.25,5.25,0,0,1-.6-3.82A4.13,4.13,0,0,1,19,94a3.41,3.41,0,0,1,3.64.85,3,3,0,0,1,0,3.92" transform="translate(-2.66 -4.21)"/><path class="cls-1" d="M71.48,74.18c2.85,4.72,5.78,9.4,8.72,14.07,4,6.4,7.9,14.67,16.11,16.26,4,.77,9.41.1,11.63-3.79a5.25,5.25,0,0,0,.6-3.82A4.13,4.13,0,0,0,106,94a3.41,3.41,0,0,0-3.64.85,3,3,0,0,0,0,3.92" transform="translate(-2.66 -4.21)"/></g></svg>